<svg width="28" height="28" viewBox="0 0 28 28" fill="none" xmlns="http://www.w3.org/2000/svg">
<path d="M0 14C0 6.26801 6.26801 0 14 0C21.732 0 28 6.26801 28 14C28 21.732 21.732 28 14 28H0V14Z" fill="white"/>
<rect x="2" y="2" width="24" height="24" rx="12" fill="#FF7110"/>
<path d="M10.625 20C10.4656 20 10.332 19.9395 10.2242 19.8184C10.1164 19.6974 10.0625 19.5474 10.0625 19.3684V18.0737C9.89375 17.8632 9.75781 17.6289 9.65469 17.3711C9.55156 17.1132 9.5 16.8316 9.5 16.5263V10.5263C9.5 9.65263 9.86094 9.01316 10.5828 8.60789C11.3047 8.20263 12.4437 8 14 8C15.6125 8 16.7656 8.19474 17.4594 8.58421C18.1531 8.97368 18.5 9.62105 18.5 10.5263V16.5263C18.5 16.8316 18.4484 17.1132 18.3453 17.3711C18.2422 17.6289 18.1062 17.8632 17.9375 18.0737V19.3684C17.9375 19.5474 17.8836 19.6974 17.7758 19.8184C17.668 19.9395 17.5344 20 17.375 20H16.8125C16.6531 20 16.5195 19.9395 16.4117 19.8184C16.3039 19.6974 16.25 19.5474 16.25 19.3684V18.7368H11.75V19.3684C11.75 19.5474 11.6961 19.6974 11.5883 19.8184C11.4805 19.9395 11.3469 20 11.1875 20H10.625ZM10.625 13.0526H17.375V11.1579H10.625V13.0526ZM12.0312 16.8421C12.2656 16.8421 12.4648 16.75 12.6289 16.5658C12.793 16.3816 12.875 16.1579 12.875 15.8947C12.875 15.6316 12.793 15.4079 12.6289 15.2237C12.4648 15.0395 12.2656 14.9474 12.0312 14.9474C11.7969 14.9474 11.5977 15.0395 11.4336 15.2237C11.2695 15.4079 11.1875 15.6316 11.1875 15.8947C11.1875 16.1579 11.2695 16.3816 11.4336 16.5658C11.5977 16.75 11.7969 16.8421 12.0312 16.8421ZM15.9688 16.8421C16.2031 16.8421 16.4023 16.75 16.5664 16.5658C16.7305 16.3816 16.8125 16.1579 16.8125 15.8947C16.8125 15.6316 16.7305 15.4079 16.5664 15.2237C16.4023 15.0395 16.2031 14.9474 15.9688 14.9474C15.7344 14.9474 15.5352 15.0395 15.3711 15.2237C15.207 15.4079 15.125 15.6316 15.125 15.8947C15.125 16.1579 15.207 16.3816 15.3711 16.5658C15.5352 16.75 15.7344 16.8421 15.9688 16.8421ZM10.8781 9.89474H17.1781C17.0375 9.71579 16.7352 9.56579 16.2711 9.44474C15.807 9.32368 15.0594 9.26316 14.0281 9.26316C13.025 9.26316 12.2914 9.32895 11.8273 9.46053C11.3633 9.59211 11.0469 9.73684 10.8781 9.89474ZM11.75 17.4737H16.25C16.5594 17.4737 16.8242 17.35 17.0445 17.1026C17.2648 16.8553 17.375 16.5579 17.375 16.2105V14.3158H10.625V16.2105C10.625 16.5579 10.7352 16.8553 10.9555 17.1026C11.1758 17.35 11.4406 17.4737 11.75 17.4737Z" fill="white"/>
</svg>
