<svg width="230" height="231" viewBox="0 0 230 231" fill="none" xmlns="http://www.w3.org/2000/svg">
<path d="M229.87 0.700012H0.0800781V230.49H229.87V0.700012Z" fill="#FF7110"/>
<path d="M124.43 104.78V89L99.5101 115.59L124.43 142.18V126.11H171.64C166.45 152.93 143.09 173.12 115.12 173.12C83.4001 173.12 57.4401 147.17 57.4401 115.44C57.4401 83.71 83.4001 58.05 115.12 58.05C135.02 58.05 152.61 68.14 162.99 83.43H187.21C174.81 55.75 147.13 36.71 115.12 36.71C71.5801 36.71 36.1001 71.89 36.1001 115.44C36.1001 158.99 71.5701 194.46 115.12 194.46C158.67 194.46 193.85 158.99 193.85 115.44C193.85 111.98 193.56 108.23 193.27 104.77H124.43V104.78Z" fill="white"/>
</svg>
