<svg width="915" height="158" viewBox="0 0 915 158" fill="none" xmlns="http://www.w3.org/2000/svg">
<path d="M17.25 41.97H3.39V156.44H17.25V41.97Z" fill="#FFAB71"/>
<path d="M10.32 20.65C4.53 20.65 0 16.12 0 10.33C0 4.54001 4.63 0.0100098 10.32 0.0100098C16.01 0.0100098 20.64 4.64001 20.64 10.33C20.64 16.02 16.11 20.65 10.32 20.65Z" fill="#FFAB71"/>
<path d="M159.25 89.57C159.25 59.33 134.77 34.73 104.67 34.73C74.57 34.73 50.09 59.33 50.09 89.57V156.45H36.23V89.05C36.23 70.76 43.34 53.61 56.25 40.77C69.15 27.94 86.35 20.87 104.67 20.87C142.41 20.87 173.11 51.69 173.11 89.58V156.46H159.25V89.57Z" fill="#FFAB71"/>
<path d="M260.54 157.75C222.66 157.75 191.83 126.93 191.83 89.04V1.57001H205.69V62.82H328.45V76.68H205.69V89.04C205.69 119.28 230.29 143.88 260.53 143.88C285.92 143.88 307.98 126.14 313.81 101.39H328C322.15 133.73 293.68 157.74 260.54 157.74V157.75Z" fill="#FFAB71"/>
<path d="M347.43 156.45V89.05C347.43 70.75 354.54 53.54 367.46 40.6C379.72 28.31 395.86 21.2 413.17 20.42V34.3C384.33 35.96 361.3 59.98 361.3 89.05V156.45H347.43Z" fill="#FFAB71"/>
<path d="M500.85 157.75C462.97 157.75 432.14 126.93 432.14 89.04C432.14 51.15 462.96 20.6 500.85 20.6C538.74 20.6 569.3 51.3 569.3 89.04V156.44H555.44V131.21L550.76 136.17C537.83 149.88 519.64 157.74 500.86 157.74L500.85 157.75ZM500.85 34.47C470.61 34.47 446.01 58.95 446.01 89.05C446.01 119.15 470.61 143.89 500.85 143.89C531.09 143.89 555.43 119.29 555.43 89.05C555.43 58.81 530.95 34.47 500.85 34.47Z" fill="#FFAB71"/>
<path d="M672.61 68.07V52.29L647.69 78.88L672.61 105.47V89.4H719.82C714.63 116.22 691.27 136.41 663.3 136.41C631.58 136.41 605.62 110.46 605.62 78.73C605.62 47 631.58 21.34 663.3 21.34C683.2 21.34 700.79 31.43 711.17 46.72H735.39C722.99 19.04 695.31 0 663.3 0C619.76 0 584.28 35.18 584.28 78.73C584.28 122.28 619.75 157.75 663.3 157.75C706.85 157.75 742.03 122.28 742.03 78.73C742.03 75.27 741.74 71.52 741.45 68.06H672.61V68.07Z" fill="#FF7110"/>
<path d="M836.04 0.01C792.5 0.01 757.02 35.19 757.02 78.74C757.02 122.29 792.49 157.76 836.04 157.76C879.59 157.76 914.77 122.29 914.77 78.74C914.77 35.19 879.58 0.01 836.04 0.01ZM836.04 136.41C804.32 136.41 778.36 110.46 778.36 78.73C778.36 47 804.32 21.34 836.04 21.34C867.76 21.34 893.43 47.01 893.43 78.73C893.43 110.45 867.76 136.41 836.04 136.41Z" fill="#FF7110"/>
</svg>
